<?xml version="1.0" encoding="utf-8"?>
<!-- Generator: Adobe Illustrator 27.1.1, SVG Export Plug-In . SVG Version: 6.00 Build 0)  -->
<svg version="1.1" id="Слой_1" xmlns="http://www.w3.org/2000/svg" xmlns:xlink="http://www.w3.org/1999/xlink" x="0px" y="0px"
	 viewBox="0 0 283.5 276.4" style="enable-background:new 0 0 283.5 276.4;" xml:space="preserve" width="36px" height="36px">
<style type="text/css">
	.st0{fill:#001E36;}
	.st1{fill:#31A8FF;}
	.st2{fill:#390000;}
	.st3{fill:#FF9A00;}
	.st4{fill:#54001A;}
	.st5{fill:#FF3068;}
	.st6{fill:#242424;}
	.st7{fill:url(#SVGID_1_);}
	.st8{fill:url(#SVGID_00000034082421032694835510000010826921122592934327_);}
	.st9{fill:url(#SVGID_00000089546453735562147970000012622186050331192758_);}
	.st10{fill:url(#SVGID_00000104703196431562905940000003810709390886926000_);}
	.st11{fill:url(#SVGID_00000132774313422976557110000016304036023129036982_);}
	.st12{fill:url(#SVGID_00000078030735736558025260000005909165361507170987_);}
	.st13{fill:url(#SVGID_00000098922117953401325160000017165887140776002435_);}
	.st14{fill:#00005B;}
	.st15{fill:#9999FF;}
	.st16{fill:#FFFFFF;}
	.st17{fill:#00BCFF;}
	.st18{fill:#00CF7F;}
	.st19{fill:#FF7361;}
	.st20{fill:#FF4D12;}
	.st21{fill:#B659FF;}
	.st22{fill:#48B02C;}
	.st23{clip-path:url(#SVGID_00000114044781285609419390000008473735375514932155_);fill:#FFFFFF;}
</style>
<g>
	<g id="Layer_2_4_">
		<g id="Surfaces_5_">
			<g id="Video_Audio_Surface_2_">
				<g id="Outline_no_shadow_5_">
					<path class="st14" d="M50.2,0h183.1c27.7,0,50.2,22.5,50.2,50.2v176c0,27.7-22.5,50.2-50.2,50.2H50.2
						C22.5,276.4,0,253.9,0,226.2v-176C0,22.5,22.5,0,50.2,0L50.2,0z"/>
				</g>
			</g>
		</g>
		<g id="Outlined_Mnemonics_Logos_4_">
			<g id="Ae">
				<path class="st15" d="M113.9,165.4H69.9L61,193.2c-0.3,1-1.2,1.8-2.3,1.7H36.5c-1.3,0-1.7-0.7-1.3-2.1l38-109.1
					c0.4-1.1,0.8-2.3,1.1-3.7c0.5-2.5,0.8-5.1,0.8-7.7c-0.1-0.6,0.4-1.2,1-1.3c0.1,0,0.2,0,0.3,0h30.2c0.9,0,1.4,0.3,1.5,1
					L151.3,193c0.4,1.3,0,1.9-1.1,1.9h-24.7c-0.9,0.1-1.7-0.5-1.9-1.3L113.9,165.4z M91.8,92.6h-0.2l-14.8,49.3h30L91.8,92.6z"/>
				<path class="st15" d="M221.3,154.5h-37.5c0.5,3.7,1.7,7.3,3.6,10.5c2.1,3.2,5.1,5.6,8.7,7.1c4.8,2.1,9.9,3.1,15.1,3
					c4.1-0.1,8.2-0.5,12.3-1.3c3.6-0.5,7.2-1.4,10.5-2.7c0.6-0.5,1-0.2,1,1V190c0,0.5-0.1,1-0.3,1.4c-0.2,0.3-0.5,0.6-0.9,0.9
					c-3.8,1.7-7.7,2.8-11.8,3.5c-5.5,1-11.1,1.5-16.7,1.4c-9,0-16.5-1.4-22.6-4.2c-5.8-2.5-10.8-6.4-14.8-11.2
					c-3.7-4.6-6.5-9.8-8.2-15.5c-1.6-5.6-2.5-11.4-2.5-17.2c0-6.4,1-12.7,2.9-18.7c1.9-5.9,4.9-11.4,8.8-16.2
					c8.7-10.5,20.7-14.9,34-14.9c11.5,0,23.4,3.8,30.8,13c3.1,4,5.5,8.6,7,13.4c1.5,4.7,2.3,9.5,2.3,14.5c0,2.8-0.1,5.3-0.3,7.6
					c-0.2,2.3-0.3,3.9-0.5,4.9c-0.1,0.9-0.8,1.5-1.7,1.5c-0.8,0-2.1,0.1-3.9,0.3c-1.8,0.2-4.1,0.3-6.8,0.4
					C227.2,155,224.4,154.5,221.3,154.5L221.3,154.5z M183.9,137.2h24.9c3,0,5.3,0,6.8-0.1c1-0.1,1.9-0.4,2.8-0.9v-1.1
					c0-1.5-0.3-3-0.8-4.4c-2.1-6.7-8.4-11.1-15.4-10.8c-6.5-0.4-12.7,3.1-15.7,8.9C185.1,131.4,184.3,134.3,183.9,137.2L183.9,137.2
					z"/>
			</g>
		</g>
	</g>
</g>
</svg>
