<?xml version="1.0" encoding="utf-8"?>
<!-- Generator: Adobe Illustrator 27.1.1, SVG Export Plug-In . SVG Version: 6.00 Build 0)  -->
<svg version="1.1" id="Слой_1" xmlns="http://www.w3.org/2000/svg" xmlns:xlink="http://www.w3.org/1999/xlink" x="0px" y="0px"
	 viewBox="0 0 283.5 276.4" style="enable-background:new 0 0 283.5 276.4;" xml:space="preserve" width="36px" height="36px">
<style type="text/css">
	.st0{fill:#001E36;}
	.st1{fill:#31A8FF;}
	.st2{fill:#390000;}
	.st3{fill:#FF9A00;}
	.st4{fill:#54001A;}
	.st5{fill:#FF3068;}
	.st6{fill:#242424;}
	.st7{fill:url(#SVGID_1_);}
	.st8{fill:url(#SVGID_00000181062307394627217370000004980898000826187172_);}
	.st9{fill:url(#SVGID_00000157270871372088960130000001619953766161950135_);}
	.st10{fill:url(#SVGID_00000153689816362700946980000014817079507962303151_);}
	.st11{fill:url(#SVGID_00000005261332021965965440000007755125714802110367_);}
	.st12{fill:url(#SVGID_00000129925715009725129820000016121672378984233863_);}
	.st13{fill:url(#SVGID_00000114774166175968010630000017238268961082865854_);}
	.st14{fill:#00005B;}
	.st15{fill:#9999FF;}
	.st16{fill:#FFFFFF;}
	.st17{fill:#00BCFF;}
	.st18{fill:#00CF7F;}
	.st19{fill:#FF7361;}
	.st20{fill:#FF4D12;}
	.st21{fill:#B659FF;}
	.st22{fill:#48B02C;}
	.st23{clip-path:url(#SVGID_00000079473751818282468090000012838217858450423471_);fill:#FFFFFF;}
</style>
<g>
	<g>
		<path class="st16" d="M50.2,0h183.1c27.8,0,50.2,22.4,50.2,50.2v176c0,27.8-22.4,50.2-50.2,50.2H50.2C22.4,276.4,0,253.9,0,226.2
			v-176C0,22.4,22.4,0,50.2,0L50.2,0z"/>
	</g>
	<g>
		<g>
			<path d="M164.1,222H55.2C41.3,222,30,210.7,30,196.8v-19.5c0-3,1.7-5.9,4.3-7.3L241,55.5c4-2.2,9.1-0.8,11.4,3.3
				c2.2,4,0.8,9.1-3.3,11.4L46.8,182.2v14.6c0,4.6,3.8,8.4,8.4,8.4h108.9c4.6,0,8.4-3.8,8.4-8.4v-13.3c0-4.6,3.8-8.4,8.4-8.4
				s8.4,3.8,8.4,8.4v13.3C189.2,210.7,177.9,222,164.1,222z"/>
		</g>
		<g>
			<path d="M245.1,222c-1.4,0-2.8-0.3-4.1-1.1L34.3,106.4c-2.7-1.5-4.3-4.3-4.3-7.3V79.5c0-13.9,11.3-25.1,25.1-25.1h108.9
				c13.9,0,25.1,11.3,25.1,25.1v13.3c0,4.6-3.8,8.4-8.4,8.4s-8.4-3.8-8.4-8.4V79.5c0-4.6-3.8-8.4-8.4-8.4H55.2
				c-4.6,0-8.4,3.8-8.4,8.4v14.6l202.3,112.1c4,2.2,5.5,7.3,3.3,11.4C250.9,220.4,248,222,245.1,222z"/>
		</g>
	</g>
</g>
</svg>
