<?xml version="1.0" encoding="utf-8"?>
<!-- Generator: Adobe Illustrator 27.1.1, SVG Export Plug-In . SVG Version: 6.00 Build 0)  -->
<svg version="1.1" id="Слой_1" xmlns="http://www.w3.org/2000/svg" xmlns:xlink="http://www.w3.org/1999/xlink" x="0px" y="0px"
	 viewBox="0 0 284.8 277.5" style="enable-background:new 0 0 284.8 277.5;" xml:space="preserve" width="36px" height="36px">
<style type="text/css">
	.st0{fill:#001E36;}
	.st1{fill:#31A8FF;}
	.st2{fill:#390000;}
	.st3{fill:#FF9A00;}
	.st4{fill:#54001A;}
	.st5{fill:#FF3068;}
	.st6{fill:#242424;}
	.st7{fill:url(#SVGID_1_);}
	.st8{fill:url(#SVGID_00000095331212331299071200000013542903996613495689_);}
	.st9{fill:url(#SVGID_00000043455501049388315280000010551724048159776945_);}
	.st10{fill:url(#SVGID_00000125581295719067508300000005945925870477525426_);}
	.st11{fill:url(#SVGID_00000125578787404054256600000004573666406929238207_);}
	.st12{fill:url(#SVGID_00000178202886979725353900000010332323570572264879_);}
	.st13{fill:url(#SVGID_00000003826507280285163010000012306881745849066912_);}
	.st14{fill:#00005B;}
	.st15{fill:#9999FF;}
	.st16{fill:#FFFFFF;}
	.st17{fill:#00BCFF;}
	.st18{fill:#00CF7F;}
	.st19{fill:#FF7361;}
	.st20{fill:#FF4D12;}
	.st21{fill:#B659FF;}
	.st22{fill:#48B02C;}
	.st23{clip-path:url(#SVGID_00000049937622086234956900000007620305675218603662_);fill:#FFFFFF;}
</style>
<g>
	<g>
		<g>
			<path class="st22" d="M51.6,1.1h183.1c27.8,0,50.2,22.4,50.2,50.2v176c0,27.8-22.4,50.2-50.2,50.2H51.6
				c-27.8,0-50.2-22.4-50.2-50.2v-176C1.4,23.5,23.8,1.1,51.6,1.1L51.6,1.1z"/>
		</g>
	</g>
	<g>
		<defs>
			<path id="SVGID_00000152956569038541049410000008813331900780857750_" d="M51.6,1.1h183.1c27.8,0,50.2,22.4,50.2,50.2v176
				c0,27.8-22.4,50.2-50.2,50.2H51.6c-27.8,0-50.2-22.4-50.2-50.2v-176C1.4,23.5,23.8,1.1,51.6,1.1L51.6,1.1z"/>
		</defs>
		<clipPath id="SVGID_00000156582227258852521600000001328669124754764223_">
			<use xlink:href="#SVGID_00000152956569038541049410000008813331900780857750_"  style="overflow:visible;"/>
		</clipPath>
		<path style="clip-path:url(#SVGID_00000156582227258852521600000001328669124754764223_);fill:#FFFFFF;" d="M176.5,72.6
			C153.9,51.7,103.1,4.5,98.3,0H0v94c3.3,3.6,50.8,55.3,73.1,79.7c5.2,5.6,11.1,9,18.8,6.7c3-0.9,6-2.6,8.2-4.8
			c25.8-25.5,51.5-51,77.2-76.7C185.1,91.1,184.9,80.3,176.5,72.6z"/>
		<path style="clip-path:url(#SVGID_00000156582227258852521600000001328669124754764223_);fill:#FFFFFF;" d="M216.1,173.7
			c-2.8-14.6-5.6-29.3-8.3-43.9c-1.4-7.3-5.4-12.5-12.6-14.8c-7.3-2.3-13.4,0.1-18.6,5.4c-18.6,18.7-37.2,37.3-55.8,55.9
			c-5.1,5.1-7.3,11-5.3,17.9c2,7.2,7.1,11,14.3,12.6c12.8,2.8,25.7,5.8,38.5,8.7c2.9,0.7,5.8,1.2,8.7,1.8c5.2,0,9.5-2,13.1-5.6
			c6.7-6.6,13.4-13.3,20.2-19.9C215.5,186.9,217.4,180.8,216.1,173.7z"/>
		<path style="clip-path:url(#SVGID_00000156582227258852521600000001328669124754764223_);fill:#FFFFFF;" d="M243,227.1
			c-1.6-4.4-3.4-8.8-5.4-13.1c-2.7-6-8.4-9.3-14.6-8.9c-8.5,0.6-17.4,10.1-17.3,20.3c0.1,4.3,2.9,8.8,8.2,11.4
			c4.3,2.2,8.8,4.1,13.3,5.9c4.8,2,9.4,1.3,13.1-2.3C244.2,236.7,244.8,232,243,227.1z"/>
	</g>
</g>
</svg>
