<?xml version="1.0" encoding="utf-8"?>
<!-- Generator: Adobe Illustrator 27.1.1, SVG Export Plug-In . SVG Version: 6.00 Build 0)  -->
<svg version="1.1" id="Слой_1" xmlns="http://www.w3.org/2000/svg" xmlns:xlink="http://www.w3.org/1999/xlink" x="0px" y="0px"
	 viewBox="0 0 283.5 276.4" style="enable-background:new 0 0 283.5 276.4;" xml:space="preserve" width="36px" height="36px">
<style type="text/css">
	.st0{fill:#001E36;}
	.st1{fill:#31A8FF;}
	.st2{fill:#390000;}
	.st3{fill:#FF9A00;}
	.st4{fill:#54001A;}
	.st5{fill:#FF3068;}
	.st6{fill:#242424;}
	.st7{fill:url(#SVGID_1_);}
	.st8{fill:url(#SVGID_00000070115767774654093920000002572230556147404710_);}
	.st9{fill:url(#SVGID_00000110471861809152325510000005774161618978851746_);}
	.st10{fill:url(#SVGID_00000118390781892510246760000014114700081788421310_);}
	.st11{fill:url(#SVGID_00000076592344365883432810000017244169484253493387_);}
	.st12{fill:url(#SVGID_00000092434580614063778430000004726537477603915393_);}
	.st13{fill:url(#SVGID_00000155868422754680130770000017904990547115759786_);}
	.st14{fill:#00005B;}
	.st15{fill:#9999FF;}
	.st16{fill:#FFFFFF;}
	.st17{fill:#00BCFF;}
	.st18{fill:#00CF7F;}
	.st19{fill:#FF7361;}
	.st20{fill:#FF4D12;}
	.st21{fill:#B659FF;}
	.st22{fill:#48B02C;}
	.st23{clip-path:url(#SVGID_00000149360090437371715610000011337394781558978199_);fill:#FFFFFF;}
</style>
<g>
	<path class="st4" d="M50.2,0h183.1c27.8,0,50.2,22.4,50.2,50.2v176c0,27.8-22.4,50.2-50.2,50.2H50.2C22.4,276.4,0,253.9,0,226.2
		v-176C0,22.4,22.4,0,50.2,0L50.2,0z"/>
	<g>
		<path class="st5" d="M103,72.3v121.2c0,1.3-0.6,1.9-1.7,1.9H78.2c-1.1,0-1.5-0.6-1.5-1.9V72.3c0-1.1,0.6-1.5,1.7-1.5h23
			c0.7-0.1,1.4,0.4,1.5,1.2C103,72,103,72.2,103,72.3L103,72.3z"/>
		<path class="st5" d="M171,197.2c-8.7,0.1-17.5-1.7-25.4-5.3c-7.4-3.4-13.6-9.1-17.8-16.1c-4.4-7.2-6.5-16.2-6.5-26.9
			c-0.1-8.7,2.1-17.4,6.5-24.9c4.5-7.7,11-14.1,18.8-18.3c8.3-4.6,18.2-6.9,29.9-6.9c0.6,0,1.4,0,2.5,0.1c1.1,0.1,2.2,0.1,3.7,0.2
			V61.9c0-0.8,0.4-1.3,1.2-1.3h24c0.6-0.1,1.1,0.4,1.2,0.8v0.2v112.4c0,2.1,0.1,4.5,0.2,7.1c0.2,2.5,0.4,4.8,0.5,6.9
			c0,0.8-0.4,1.5-1.2,1.9c-6.1,2.6-12.6,4.5-19.3,5.7C183.3,196.7,177.2,197.2,171,197.2L171,197.2z M182.6,173.6v-52
			c-1.1-0.2-2.1-0.5-3.2-0.6c-1.3-0.1-2.6-0.2-3.9-0.2c-4.6,0-9.2,0.9-13.3,3.1c-4,2-7.4,5-10,8.7c-2.6,3.8-3.9,8.9-3.9,15
			c-0.1,4.1,0.6,8.3,2,12.2c1.2,3.2,3,6,5.3,8.4c2.2,2.1,5,3.8,8,4.7c3.2,1.1,6.5,1.5,9.8,1.5c1.8,0,3.4-0.1,5-0.2
			C179.9,174.3,181.3,174.1,182.6,173.6L182.6,173.6z"/>
	</g>
</g>
</svg>
