<?xml version="1.0" encoding="utf-8"?>
<!-- Generator: Adobe Illustrator 27.1.1, SVG Export Plug-In . SVG Version: 6.00 Build 0)  -->
<svg version="1.1" id="Слой_1" xmlns="http://www.w3.org/2000/svg" xmlns:xlink="http://www.w3.org/1999/xlink" x="0px" y="0px"
	 viewBox="0 0 283.5 276.4" style="enable-background:new 0 0 283.5 276.4;" xml:space="preserve" width="36px" height="36px">
<style type="text/css">
	.st0{fill:#001E36;}
	.st1{fill:#31A8FF;}
	.st2{fill:#390000;}
	.st3{fill:#FF9A00;}
	.st4{fill:#54001A;}
	.st5{fill:#FF3068;}
	.st6{fill:#242424;}
	.st7{fill:url(#SVGID_1_);}
	.st8{fill:url(#SVGID_00000160157597045194416820000010190451945973686151_);}
	.st9{fill:url(#SVGID_00000054960735085140784100000017239207758670653097_);}
	.st10{fill:url(#SVGID_00000054235063921460446500000009328528326440324493_);}
	.st11{fill:url(#SVGID_00000134944821769557080270000004355458363033574318_);}
	.st12{fill:url(#SVGID_00000057125038667470862730000006717061736253241267_);}
	.st13{fill:url(#SVGID_00000035520803553735865140000010187348913343424694_);}
	.st14{fill:#00005B;}
	.st15{fill:#9999FF;}
	.st16{fill:#FFFFFF;}
	.st17{fill:#00BCFF;}
	.st18{fill:#00CF7F;}
	.st19{fill:#FF7361;}
	.st20{fill:#FF4D12;}
	.st21{fill:#B659FF;}
	.st22{fill:#48B02C;}
	.st23{clip-path:url(#SVGID_00000157271957950608062390000009992773214618836878_);fill:#FFFFFF;}
</style>
<g>
	<path class="st0" d="M50.2,0h183.1c27.8,0,50.2,22.4,50.2,50.2v176c0,27.8-22.4,50.2-50.2,50.2H50.2C22.4,276.4,0,253.9,0,226.2
		v-176C0,22.4,22.4,0,50.2,0z"/>
	<g>
		<path class="st1" d="M63.8,193.8V72.3c0-0.8,0.4-1.3,1.2-1.3c2,0,3.9,0,6.6-0.1c2.8-0.1,5.8-0.1,9-0.2c3.2-0.1,6.6-0.1,10.3-0.2
			c3.7-0.1,7.2-0.1,10.7-0.1c9.7,0,17.7,1.2,24.3,3.7c5.9,2,11.3,5.3,15.8,9.7c3.8,3.8,6.7,8.4,8.6,13.5c1.8,5,2.7,10,2.7,15.4
			c0,10.2-2.4,18.5-7.1,25.2c-4.7,6.6-11.3,11.6-19,14.4c-8,3-16.9,4-26.6,4c-2.8,0-4.7,0-5.9-0.1c-1.2-0.1-2.8-0.1-5.1-0.1v37.9
			c0.1,0.8-0.5,1.5-1.3,1.7H65.2C64.3,195.4,63.8,194.9,63.8,193.8L63.8,193.8z M89.5,93.8v39.7c1.7,0.1,3.2,0.2,4.6,0.2h6.3
			c4.6,0,9.2-0.7,13.6-2.1c3.8-1.1,7.1-3.3,9.7-6.3c2.5-3,3.7-7,3.7-12.2c0.1-3.7-0.8-7.3-2.7-10.5c-2-3.1-4.8-5.4-8.3-6.7
			c-4.4-1.8-9.1-2.5-13.9-2.4c-3.1,0-5.8,0-8,0.1C92,93.5,90.4,93.7,89.5,93.8L89.5,93.8z M226.8,126.3c-3.5-1.9-7.3-3.2-11.3-4
			c-4.4-0.9-8.7-1.5-13.2-1.5c-2.4-0.1-4.8,0.2-7.1,0.8c-1.5,0.4-2.8,1.2-3.7,2.4c-0.6,0.9-0.9,2.1-0.9,3.2s0.5,2.1,1.2,3.1
			c1.1,1.3,2.5,2.4,4,3.2c2.7,1.4,5.6,2.7,8.4,3.9c6.4,2.1,12.5,5.1,18.2,8.6c3.9,2.5,7.1,5.8,9.3,9.8c1.9,3.8,2.8,7.9,2.7,12.2
			c0.1,5.6-1.5,11.1-4.6,15.7c-3.3,4.7-7.9,8.4-13.2,10.5c-5.8,2.5-12.9,3.8-21.4,3.8c-5.4,0-10.7-0.5-16.1-1.5
			c-4.1-0.7-8.3-2-12-3.8c-0.8-0.5-1.4-1.3-1.3-2.2v-20.6c0-0.4,0.1-0.8,0.5-1.1c0.4-0.2,0.7-0.1,1.1,0.1c4.6,2.7,9.4,4.6,14.6,5.8
			c4.5,1.2,9.2,1.8,13.9,1.8c4.5,0,7.7-0.6,9.8-1.7c1.9-0.8,3.2-2.8,3.2-5c0-1.7-0.9-3.2-2.8-4.7s-5.8-3.3-11.6-5.6
			c-6-2.1-11.6-5-16.8-8.5c-3.7-2.6-6.7-6-9-10c-1.9-3.8-2.8-7.9-2.7-12c0-5.1,1.4-9.9,4-14.3c3-4.7,7.3-8.5,12.4-10.9
			c5.6-2.8,12.5-4.1,20.9-4.1c4.8,0,9.8,0.4,14.6,1.1c3.5,0.5,7,1.4,10.2,2.7c0.5,0.1,0.9,0.6,1.2,1.1c0.1,0.5,0.2,0.9,0.2,1.4v19.3
			c0,0.5-0.2,0.9-0.6,1.2C227.8,126.5,227.2,126.5,226.8,126.3L226.8,126.3z"/>
	</g>
</g>
</svg>
