<?xml version="1.0" encoding="utf-8"?>
<!-- Generator: Adobe Illustrator 27.1.1, SVG Export Plug-In . SVG Version: 6.00 Build 0)  -->
<svg version="1.1" id="Слой_1" xmlns="http://www.w3.org/2000/svg" xmlns:xlink="http://www.w3.org/1999/xlink" x="0px" y="0px"
	 viewBox="0 0 283.5 276.4" style="enable-background:new 0 0 283.5 276.4;" xml:space="preserve" width="36px" height="36px" >
<style type="text/css">
	.st0{fill:#001E36;}
	.st1{fill:#31A8FF;}
	.st2{fill:#390000;}
	.st3{fill:#FF9A00;}
	.st4{fill:#54001A;}
	.st5{fill:#FF3068;}
	.st6{fill:#242424;}
	.st7{fill:url(#SVGID_1_);}
	.st8{fill:url(#SVGID_00000145024331646856746210000018242566280614083465_);}
	.st9{fill:url(#SVGID_00000146469507043538017920000015852542809804105891_);}
	.st10{fill:url(#SVGID_00000059999238668749190870000015491393604242826915_);}
	.st11{fill:url(#SVGID_00000000906662658579689950000017191164487316486549_);}
	.st12{fill:url(#SVGID_00000106859866454016389160000000815670684022495889_);}
	.st13{fill:url(#SVGID_00000153699646246764423700000015457298553535621537_);}
	.st14{fill:#00005B;}
	.st15{fill:#9999FF;}
	.st16{fill:#FFFFFF;}
	.st17{fill:#00BCFF;}
	.st18{fill:#00CF7F;}
	.st19{fill:#FF7361;}
	.st20{fill:#FF4D12;}
	.st21{fill:#B659FF;}
	.st22{fill:#48B02C;}
	.st23{clip-path:url(#SVGID_00000104696527554726774810000000865502109907485608_);fill:#FFFFFF;}
</style>
<g>
	<path class="st2" d="M50.2,0h183.1c27.8,0,50.2,22.4,50.2,50.2v176c0,27.8-22.4,50.2-50.2,50.2H50.2C22.4,276.4,0,253.9,0,226.2
		v-176C0,22.4,22.4,0,50.2,0L50.2,0z"/>
	<g>
		<path class="st3" d="M137.4,165.8H93.4l-9,27.8c-0.2,1.1-1.2,1.8-2.2,1.7H60c-1.3,0-1.7-0.7-1.3-2.1l38-109.5
			c0.4-1.2,0.7-2.5,1.2-3.9c0.5-2.5,0.7-5.1,0.7-7.7c-0.1-0.6,0.4-1.2,0.9-1.3h0.4h30.2c0.9,0,1.4,0.4,1.5,0.9l43.1,121.7
			c0.4,1.3,0,1.9-1.2,1.9h-24.7c-0.8,0.1-1.7-0.5-1.9-1.3L137.4,165.8z M100.3,141.9h30l-15.1-49.3L100.3,141.9z"/>
		<path class="st3" d="M200.6,90.9c-3.9,0.1-7.7-1.4-10.5-4.1c-2.7-3-4.1-6.9-4-10.9c-0.1-4,1.4-7.8,4.3-10.5
			c2.8-2.7,6.6-4.1,10.5-4.1c4.6,0,8.1,1.4,10.7,4.1c2.6,2.8,4,6.6,3.9,10.5c0.1,4-1.3,7.9-4.1,10.9
			C208.6,89.6,204.6,91.2,200.6,90.9z"/>
		<path class="st3" d="M187.3,193.5v-90.9c0-1.2,0.5-1.7,1.5-1.7h23.4c1.1,0,1.5,0.6,1.5,1.7v90.9c0,1.3-0.5,1.9-1.5,1.9h-23.1
			C187.9,195.4,187.3,194.6,187.3,193.5z"/>
	</g>
</g>
</svg>
