<!-- Generated by IcoMoon.io -->
<svg version="1.1" xmlns="http://www.w3.org/2000/svg" width="28" height="28" viewBox="0 0 28 28">
<path fill="white" d="M28 22.532c0 0.589-0.236 1.178-0.66 1.603l-3.205 3.205c-0.424 0.424-1.013 0.66-1.603 0.66s-1.178-0.236-1.603-0.66l-6.929-6.929-6.929 6.929c-0.424 0.424-1.013 0.66-1.603 0.66s-1.178-0.236-1.603-0.66l-3.205-3.205c-0.424-0.424-0.66-1.013-0.66-1.603s0.236-1.178 0.66-1.603l6.929-6.929-6.929-6.929c-0.424-0.424-0.66-1.013-0.66-1.603s0.236-1.178 0.66-1.603l3.205-3.205c0.424-0.424 1.013-0.66 1.603-0.66s1.178 0.236 1.603 0.66l6.929 6.929 6.929-6.929c0.424-0.424 1.013-0.66 1.603-0.66s1.178 0.236 1.603 0.66l3.205 3.205c0.424 0.424 0.66 1.013 0.66 1.603s-0.236 1.178-0.66 1.603l-6.929 6.929 6.929 6.929c0.424 0.424 0.66 1.013 0.66 1.603z"></path>
</svg>
