<?xml version="1.0" encoding="utf-8"?>
<!-- Generator: Adobe Illustrator 27.1.1, SVG Export Plug-In . SVG Version: 6.00 Build 0)  -->
<svg version="1.1" id="Слой_1" xmlns="http://www.w3.org/2000/svg" xmlns:xlink="http://www.w3.org/1999/xlink" x="0px" y="0px"
	 viewBox="0 0 283.5 276.4" style="enable-background:new 0 0 283.5 276.4;" xml:space="preserve" width="36px" height="36px">
<style type="text/css">
	.st0{fill:#001E36;}
	.st1{fill:#31A8FF;}
	.st2{fill:#390000;}
	.st3{fill:#FF9A00;}
	.st4{fill:#54001A;}
	.st5{fill:#FF3068;}
	.st6{fill:#242424;}
	.st7{fill:url(#SVGID_1_);}
	.st8{fill:url(#SVGID_00000057107323935545523530000000916686290107137436_);}
	.st9{fill:url(#SVGID_00000084504611168155720780000010159744196379257233_);}
	.st10{fill:url(#SVGID_00000049214873434634814410000016380589051678317456_);}
	.st11{fill:url(#SVGID_00000029011894307561777470000006752419000049042051_);}
	.st12{fill:url(#SVGID_00000091719421509710937350000007617710101029201303_);}
	.st13{fill:url(#SVGID_00000053509421892218710420000003720149157724061837_);}
	.st14{fill:#00005B;}
	.st15{fill:#9999FF;}
	.st16{fill:#FFFFFF;}
	.st17{fill:#00BCFF;}
	.st18{fill:#00CF7F;}
	.st19{fill:#FF7361;}
	.st20{fill:#FF4D12;}
	.st21{fill:#B659FF;}
	.st22{fill:#48B02C;}
	.st23{clip-path:url(#SVGID_00000173843848555895655780000018021312407785494971_);fill:#FFFFFF;}
</style>
<g>
	<g>
		<path d="M50.2,0h183.1c27.8,0,50.2,22.4,50.2,50.2v176c0,27.8-22.4,50.2-50.2,50.2H50.2C22.4,276.4,0,253.9,0,226.2v-176
			C0,22.4,22.4,0,50.2,0L50.2,0z"/>
	</g>
	<g>
		<path class="st17" d="M142,138.2c0-18.2,14.7-32.9,32.9-32.9s32.9,14.7,32.9,32.9c0,18.2-14.7,32.9-32.9,32.9
			C156.7,171.1,142,156.4,142,138.2z"/>
		<path class="st18" d="M76.1,204.1c0-18.2,14.7-32.9,32.9-32.9l17.6-9.3l15.4,9.3v32.9c0,18.2-14.7,32.9-32.9,32.9
			S76.1,222.3,76.1,204.1L76.1,204.1z"/>
		<path class="st19" d="M142,39.4L124,70.5l17.9,34.7h32.5c18.2,0,32.9-14.7,32.9-32.9s-14.7-32.9-32.9-32.9H142z"/>
		<path class="st20" d="M75.6,72.3c0,18.2,14.7,32.9,32.9,32.9L126,112l15.9-6.7V39.4h-33.4C90.4,39.4,75.6,54.1,75.6,72.3
			L75.6,72.3z"/>
		<path class="st21" d="M76.1,138.2c0,18.2,14.7,32.9,32.9,32.9H142v-65.9H109C90.8,105.3,76.1,120,76.1,138.2L76.1,138.2z"/>
	</g>
</g>
</svg>
