<?xml version="1.0" encoding="utf-8"?>
<!-- Generator: Adobe Illustrator 27.1.1, SVG Export Plug-In . SVG Version: 6.00 Build 0)  -->
<svg version="1.1" id="Слой_1" xmlns="http://www.w3.org/2000/svg" xmlns:xlink="http://www.w3.org/1999/xlink" x="0px" y="0px"
	 viewBox="0 0 283.5 283.5" style="enable-background:new 0 0 283.5 283.5;" xml:space="preserve" width="36px" height="36px">
<style type="text/css">
	.st0{fill:#001E36;}
	.st1{fill:#31A8FF;}
	.st2{fill:#390000;}
	.st3{fill:#FF9A00;}
	.st4{fill:#54001A;}
	.st5{fill:#FF3068;}
	.st6{fill:#242424;}
	.st7{fill:url(#SVGID_1_);}
	.st8{fill:url(#SVGID_00000158745621678511114380000000734698077694010539_);}
	.st9{fill:url(#SVGID_00000018944979307729508230000013921674405241284746_);}
	.st10{fill:url(#SVGID_00000145740584955147474450000010713630018265811340_);}
	.st11{fill:url(#SVGID_00000045589046250777937100000007447872478723924634_);}
	.st12{fill:url(#SVGID_00000075135168770949632220000016640677438243553680_);}
	.st13{fill:url(#SVGID_00000181779423400558698060000017479297051223455908_);}
	.st14{fill:#00005B;}
	.st15{fill:#9999FF;}
	.st16{fill:#FFFFFF;}
	.st17{fill:#00BCFF;}
	.st18{fill:#00CF7F;}
	.st19{fill:#FF7361;}
	.st20{fill:#FF4D12;}
	.st21{fill:#B659FF;}
	.st22{fill:#48B02C;}
	.st23{clip-path:url(#SVGID_00000013901306268677130080000006255945619761939096_);fill:#FFFFFF;}
</style>
<g>
	<g>
		<path class="st6" d="M220.8,283.5H62.7C28.1,283.5,0,255.4,0,220.8V62.7C0,28.1,28.1,0,62.7,0h158.1c34.6,0,62.7,28.1,62.7,62.7
			v158.1C283.5,255.4,255.4,283.5,220.8,283.5z"/>
	</g>
	<g>
		
			<linearGradient id="SVGID_1_" gradientUnits="userSpaceOnUse" x1="140.2146" y1="-4.8464" x2="134.8813" y2="74.3885" gradientTransform="matrix(1 0 0 1 0 182.11)">
			<stop  offset="0" style="stop-color:#FD5200"/>
			<stop  offset="0.2722" style="stop-color:#FFDC38"/>
			<stop  offset="0.9626" style="stop-color:#F3FEAB"/>
		</linearGradient>
		<path class="st7" d="M131.4,121.2c-35.8,10.7-99.1,35.1-102.1,134.1c11.4-53.3,39.6-61,91.4-73.1c51.8-12.2,80-25.9,111.2-63.2
			c31.2-37.3,20.6-90.7,20.6-90.7c0,28.9-20.6,48-40.4,61.7S167.2,110.5,131.4,121.2z"/>
		<g>
			
				<linearGradient id="SVGID_00000002386505761531291840000013169062572154320518_" gradientUnits="userSpaceOnUse" x1="90.687" y1="-166.7876" x2="37.3259" y2="39.1307" gradientTransform="matrix(1 0 0 1 0 182.11)">
				<stop  offset="0.4072" style="stop-color:#9E010A"/>
				<stop  offset="0.6244" style="stop-color:#FC56A4"/>
				<stop  offset="0.689" style="stop-color:#F2A780"/>
				<stop  offset="0.7431" style="stop-color:#FFC78A"/>
			</linearGradient>
			<path style="fill:url(#SVGID_00000002386505761531291840000013169062572154320518_);" d="M29.3,255.3
				C29.3,255.3,29.3,255.2,29.3,255.3c0.1-2.6,0.2-5,0.4-7.5C29.4,250.4,29.2,252.9,29.3,255.3z"/>
			
				<linearGradient id="SVGID_00000117637448032303475810000012552663662683146898_" gradientUnits="userSpaceOnUse" x1="150.9922" y1="1670.2911" x2="131.2445" y2="1528.337" gradientTransform="matrix(1 0 0 -1 0 1748.1927)">
				<stop  offset="0.4072" style="stop-color:#9E010A"/>
				<stop  offset="0.6244" style="stop-color:#FC56A4"/>
				<stop  offset="0.689" style="stop-color:#F2A780"/>
				<stop  offset="0.7431" style="stop-color:#FFC78A"/>
			</linearGradient>
			<path style="fill:url(#SVGID_00000117637448032303475810000012552663662683146898_);" d="M162.5,169.9
				c-26.9,5.1-54.3,4.5-72.3,9.2c-32,8.4-58.6,46.5-61,76.2c0.1-2.5,0.2-5,0.4-7.5c3.5-32.3,33.3-85.4,98.7-114.4
				c20.8-9.2,39.5-19,55.8-29.1c10.5-4.1,19.7-8.6,28-14.3c19.8-13.7,40.4-32.8,40.4-61.7c0,0,1.7,43.5-12.4,80.7
				c-1.9,3.5-4.1,7-6.6,10.2C214.5,143.8,192.1,158.9,162.5,169.9z"/>
		</g>
		
			<linearGradient id="SVGID_00000065777937359896056080000017159729950675763585_" gradientUnits="userSpaceOnUse" x1="191.3912" y1="-73.868" x2="41.3017" y2="34.3173" gradientTransform="matrix(1 0 0 1 0 182.11)">
			<stop  offset="7.537688e-02" style="stop-color:#0C64CC"/>
			<stop  offset="0.3348" style="stop-color:#1F9FE3"/>
			<stop  offset="0.4851" style="stop-color:#1B9DEB"/>
			<stop  offset="0.7569" style="stop-color:#72F07F"/>
			<stop  offset="0.8584" style="stop-color:#DBFEC8"/>
			<stop  offset="0.9913" style="stop-color:#F6F9B1"/>
		</linearGradient>
		<path style="fill:url(#SVGID_00000065777937359896056080000017159729950675763585_);" d="M29.7,246.5c-0.2,2.9-0.3,5.8-0.4,8.7
			C29.1,252.5,29.3,249.6,29.7,246.5c6.4-91.8,66.9-115,101.7-125.3c35.8-10.7,61-17.5,80.8-31.2s40.4-32.8,40.4-61.7
			c0,0,10.7,53.3-20.6,90.7c-31.2,37.3-57.1,22.1-109,34.3C75.7,164.3,34.8,214.1,29.7,246.5z"/>
		<g>
			
				<linearGradient id="SVGID_00000135674329318481748380000009963111636578124445_" gradientUnits="userSpaceOnUse" x1="186.9916" y1="-12.9436" x2="122.381" y2="-51.4022" gradientTransform="matrix(1 0 0 1 0 182.11)">
				<stop  offset="2.512563e-02" style="stop-color:#4226A2"/>
				<stop  offset="0.2769" style="stop-color:#7357CB"/>
				<stop  offset="0.4721" style="stop-color:#4783DF"/>
				<stop  offset="0.5228" style="stop-color:#3B8FE4"/>
				<stop  offset="0.5797" style="stop-color:#3B9DE4"/>
				<stop  offset="0.6561" style="stop-color:#3BA7E4"/>
				<stop  offset="0.7412" style="stop-color:#3BABE4"/>
			</linearGradient>
			<path style="fill:url(#SVGID_00000135674329318481748380000009963111636578124445_);" d="M110,158.5
				c48.8-9.1,79.2-8.4,112.8-44.2c33.5-35.8,29.7-86.1,29.7-86.1c0,28.9-20.6,48-40.4,61.7c-8.3,5.7-17.5,10.2-28,14.3
				c-16.3,10-38.8,20.3-59.6,29.5c-65.3,29-91.3,81.6-94.9,114c-0.2,2.4-0.3,4.9-0.4,7.5C31.6,225.5,61.3,167.7,110,158.5z"/>
			
				<linearGradient id="SVGID_00000079447766224406085080000014016377633699419012_" gradientUnits="userSpaceOnUse" x1="109.6253" y1="117.1252" x2="45.6283" y2="79.0319" gradientTransform="matrix(1 0 0 1 0 182.11)">
				<stop  offset="0" style="stop-color:#4226A2"/>
				<stop  offset="0.3221" style="stop-color:#7357CB"/>
				<stop  offset="0.6283" style="stop-color:#3B8FE4"/>
			</linearGradient>
			<path style="fill:url(#SVGID_00000079447766224406085080000014016377633699419012_);" d="M29.3,255.3
				C29.3,255.3,29.3,255.2,29.3,255.3c0.1-2.6,0.2-5,0.4-7.5C29.4,250.4,29.2,252.9,29.3,255.3z"/>
		</g>
		
			<linearGradient id="SVGID_00000125583908929770713840000014972589094753652915_" gradientUnits="userSpaceOnUse" x1="257.7639" y1="-121.3639" x2="34.5364" y2="53.1037" gradientTransform="matrix(1 0 0 1 0 182.11)">
			<stop  offset="0" style="stop-color:#7C4ADF"/>
			<stop  offset="0.3459" style="stop-color:#E251D8"/>
			<stop  offset="0.7297" style="stop-color:#FCDFBC"/>
			<stop  offset="0.8312" style="stop-color:#F6F8B0"/>
			<stop  offset="0.9186" style="stop-color:#FFFFF2"/>
			<stop  offset="0.9894" style="stop-color:#F6F8B0"/>
		</linearGradient>
		<path style="fill:url(#SVGID_00000125583908929770713840000014972589094753652915_);" d="M144.3,128.8
			C55.2,145.6,28.5,224.3,29.3,255.3c2.3-29.7,28.2-64,61.7-82.3c49.5-25.2,101.3-11.4,137.1-48s24.4-96.8,24.4-96.8
			c0,28.9-10.7,56.4-29.7,72.4C203.8,116.6,165.7,124.7,144.3,128.8z"/>
	</g>
</g>
</svg>
